<svg xmlns="http://www.w3.org/2000/svg" width="44" height="44" viewBox="0 0 44 44" fill="none">
    <path
        d="M28.8844 26.134H27.4361L26.9228 25.639C28.7194 23.549 29.8011 20.8356 29.8011 17.884C29.8011 11.3023 24.4661 5.96729 17.8844 5.96729C11.3028 5.96729 5.96777 11.3023 5.96777 17.884C5.96777 24.4656 11.3028 29.8006 17.8844 29.8006C20.8361 29.8006 23.5494 28.719 25.6394 26.9223L26.1344 27.4356V28.884L35.3011 38.0323L38.0328 35.3006L28.8844 26.134ZM17.8844 26.134C13.3194 26.134 9.63444 22.449 9.63444 17.884C9.63444 13.319 13.3194 9.63395 17.8844 9.63395C22.4494 9.63395 26.1344 13.319 26.1344 17.884C26.1344 22.449 22.4494 26.134 17.8844 26.134Z"
        fill="#6838C9" />
</svg>